#!OML:ASF G:\JayActor3\Patient Classification 1\Patient 1\Session 6\male.ASF
:FULLY-SPECIFIED
:DEGREES
1540
root 5.30277 16.4072 -23.752 204.554 -45.3904 -175.153
lowerback 29.0972 -1.53434 3.99485
upperback 6.27516 -1.60888 1.01499
thorax -9.02968 -1.20791 -0.530824
lowerneck 2.10675 -0.21434 3.59652
upperneck 4.63838 -0.330338 -0.387563
head 1.06939 -0.149891 -0.717294
rclavicle 4.65156e-014 6.97734e-014
rhumerus -34.8585 8.7809 -87.0812
rradius 49.0787
rwrist 4.21213
rhand -11.8555 -5.85973
rfingers 7.12502
rthumb 14.1962 -35.3546
lclavicle 4.65156e-014 6.97734e-014
lhumerus -39.8785 -22.2451 89.9661
lradius 47.8304
lwrist 26.5741
lhand -17.4133 4.49672
lfingers 7.12502
lthumb 8.83657 34.2917
rfemur -56.4045 7.39141 22.8029
rtibia 40.7337
rfoot -11.4345 -6.25923
rtoes 13.352
lfemur -50.4438 10.6318 -24.4127
ltibia 37.412
lfoot -14.2913 0.927264
ltoes 2.85094
1541
root 5.30349 16.4079 -23.7518 204.562 -45.4044 -175.153
lowerback 29.0992 -1.53617 3.99308
upperback 6.27187 -1.61077 1.01658
thorax -9.03448 -1.20859 -0.527218
lowerneck 2.1114 -0.218654 3.59362
upperneck 4.63489 -0.335818 -0.387548
head 1.06739 -0.152681 -0.716773
rclavicle 5.04913e-014 7.35503e-015
rhumerus -34.8638 8.79736 -87.0841
rradius 49.0997
rwrist 4.20625
rhand -11.8552 -5.85662
rfingers 7.12502
rthumb 14.1965 -35.3515
lclavicle 5.04913e-014 7.35503e-015
lhumerus -39.8799 -22.2659 89.9753
lradius 47.8309
lwrist 26.5817
lhand -17.4026 4.49622
lfingers 7.12502
lthumb 8.84684 34.2908
rfemur -56.4078 7.38111 22.8058
rtibia 40.7211
rfoot -11.4302 -6.25726
rtoes 13.3824
lfemur -50.4475 10.6264 -24.4119
ltibia 37.3948
lfoot -14.2811 0.919455
ltoes 2.85924
1542
root 5.30431 16.4085 -23.7516 204.572 -45.419 -175.155
lowerback 29.1023 -1.53786 3.98684
upperback 6.26852 -1.61357 1.01997
thorax -9.03971 -1.20959 -0.518671
lowerneck 2.11207 -0.224833 3.58308
upperneck 4.63027 -0.344093 -0.381792
head 1.06564 -0.156893 -0.713196
rclavicle 3.02153e-014 2.127e-014
rhumerus -34.8694 8.81957 -87.0815
rradius 49.1297
rwrist 4.18271
rhand -11.8507 -5.87921
rfingers 7.12502
rthumb 14.2009 -35.3738
lclavicle 3.02153e-014 2.127e-014
lhumerus -39.8779 -22.2754 89.9813
lradius 47.8292
lwrist 26.5797
lhand -17.3923 4.49421
lfingers 7.12502
lthumb 8.85679 34.2883
rfemur -56.4135 7.37102 22.8076
rtibia 40.711
rfoot -11.4242 -6.25777
rtoes 13.4117
lfemur -50.4531 10.6204 -24.412
ltibia 37.379
lfoot -14.2689 0.909869
ltoes 2.87023
1543
root 5.30534 16.4089 -23.7513 204.581 -45.4341 -175.154
lowerback 29.1044 -1.54034 3.97905
upperback 6.26511 -1.61774 1.0245
thorax -9.04455 -1.21117 -0.507463
lowerneck 2.10781 -0.231251 3.56484
upperneck 4.6281 -0.353183 -0.369931
head 1.06544 -0.16154 -0.706453
rclavicle -4.77083e-014 3.16068e-014
rhumerus -34.8741 8.83756 -87.0777
rradius 49.1608
rwrist 4.16872
rhand -11.8501 -5.89415
rfingers 7.12502
rthumb 14.2015 -35.3887
lclavicle -4.77083e-014 3.16068e-014
lhumerus -39.8737 -22.2753 89.98
lradius 47.8279
lwrist 26.5718
lhand -17.3807 4.49076
lfingers 7.12502
lthumb 8.86803 34.2844
rfemur -56.4236 7.36344 22.8118
rtibia 40.7032
rfoot -11.4154 -6.26324
rtoes 13.4459
lfemur -50.4642 10.6161 -24.4104
ltibia 37.3667
lfoot -14.2548 0.898183
ltoes 2.8732
1544
root 5.30655 16.4092 -23.7509 204.593 -45.4477 -175.153
lowerback 29.1039 -1.54303 3.96666
upperback 6.26275 -1.62372 1.02933
thorax -9.04695 -1.21348 -0.492719
lowerneck 2.09347 -0.236838 3.53692
upperneck 4.62802 -0.362071 -0.345011
head 1.06757 -0.166055 -0.694071
rclavicle 4.69132e-014 5.88403e-014
rhumerus -34.8713 8.86177 -87.0719
rradius 49.1847
rwrist 4.15813
rhand -11.8503 -5.90358
rfingers 7.12502
rthumb 14.2013 -35.3981
lclavicle 4.69132e-014 5.88403e-014
lhumerus -39.8665 -22.2646 89.9706
lradius 47.8285
lwrist 26.5619
lhand -17.3741 4.48712
lfingers 7.12502
lthumb 8.87431 34.2805
rfemur -56.4389 7.35979 22.8144
rtibia 40.6979
rfoot -11.4055 -6.27419
rtoes 13.4764
lfemur -50.4813 10.614 -24.4106
ltibia 37.359
lfoot -14.2386 0.886878
ltoes 2.86345
